# xmcd CD database file
#
# Track frame offsets:
#	150
#	26723
#	54137
#	77338
#	98338
#	126594
#	160592
#	189338
#	220102
#	250292
#
# Disc length: 3656 seconds
#
# Revision: 0
# Processed by: cddbd v1.5.2PL0 Copyright (c) Steve Scherf et al.
# Submitted via: CDex 1.70beta2
#
DISCID=720e460a
DTITLE=orange pekoe - Best Remixes
DYEAR=2006
DGENRE=Jazz
TTITLE0=LOVE LIFE (Mode for Kita-Horie)
TTITLE1=黄金色の羽根 (GIRA MUNDO Remix)
TTITLE2=スウィート・ムービー (Sunaga t experience remix)
TTITLE3=ソング・バード (OS BOSSA 4 Version)
TTITLE4=太陽のかけら (ELECTRIC SHEEP REMIX)
TTITLE5=kiseki - (Beanfield Remix)
TTITLE6=Happy Valley (Yukihiro Fukutomi Remix)
TTITLE7=Honeysuckle (Raphael's Samba Tek)
TTITLE8=空に架かるcircle (STUDIO APARTMENT Remix)
TTITLE9=やわらかな夜 (WALZ FOR &'S REMIX)
EXTD=YEAR: 2006
EXTT0=
EXTT1=
EXTT2=
EXTT3=
EXTT4=
EXTT5=
EXTT6=
EXTT7=
EXTT8=
EXTT9=
PLAYORDER=
